<svg width="60" height="60" viewBox="0 0 92 129" fill="none" xmlns="http://www.w3.org/2000/svg">
<path d="M30 0H62C69.1608 0 76.0284 2.84463 81.0919 7.90812C86.1554 12.9716 89 19.8392 89 27V129H3V27C3 19.8392 5.84463 12.9716 10.9081 7.90812C15.9716 2.84463 22.8392 0 30 0Z" fill="#F0F6D6"/>
<g clip-path="url(#clip0_1153_7678)">
<mask id="mask0_1153_7678" style="mask-type:luminance" maskUnits="userSpaceOnUse" x="-49" y="-23" width="190" height="166">
<path d="M-48.6764 142.153V-22.1531H140.67V142.153" fill="white"/>
</mask>
<g mask="url(#mask0_1153_7678)">
<path d="M81.8281 13.49H9.28029C7.42063 13.49 5.91309 14.9708 5.91309 16.7975V107.659C5.91309 109.485 7.42063 110.966 9.28029 110.966H81.8281C83.6878 110.966 85.1953 109.485 85.1953 107.659V16.7975C85.1953 14.9708 83.6878 13.49 81.8281 13.49Z" fill="#495223"/>
<path d="M80.0118 17.036L8.88556 18.7556L11.104 107.285L82.2302 105.565L80.0118 17.036Z" fill="#DBDBDB"/>
<path d="M10.3995 17.5657L9.56555 106.118L80.7103 106.764L81.5442 18.2122L10.3995 17.5657Z" fill="#C9C9C9"/>
<path d="M80.9213 17.7073L10.257 17.8042L10.3838 107.004L81.048 106.907L80.9213 17.7073Z" fill="#F8FAFD"/>
<path d="M30.9589 11.2554H60.1111C63.6071 11.2554 66.4458 14.0436 66.4458 17.4776V19.4279C66.4458 19.6547 66.2584 19.8371 66.0293 19.8371H25.0407C24.8099 19.8371 24.6242 19.653 24.6242 19.4279V17.4776C24.6242 14.0436 27.4629 11.2554 30.9589 11.2554Z" fill="#646F35"/>
<path d="M24.6242 17.7029V19.4297C24.6242 19.6565 24.8116 19.8389 25.0407 19.8389H66.0292C66.2601 19.8389 66.4458 19.6548 66.4458 19.4297V17.7029H24.6226H24.6242Z" fill="#495223"/>
<path d="M47.2395 4.77026H43.8322C40.1204 4.77026 37.1128 7.72613 37.1128 11.3704C37.1128 11.6284 37.3253 11.8371 37.5879 11.8371H53.4855C53.7481 11.8371 53.9605 11.6284 53.9605 11.3704C53.9605 7.72448 50.9513 4.77026 47.2412 4.77026H47.2395ZM45.54 10.5456C44.2821 10.5456 43.2618 9.54335 43.2618 8.30777C43.2618 7.07219 44.2821 6.06992 45.54 6.06992C46.7979 6.06992 47.8183 7.07219 47.8183 8.30777C47.8183 9.54335 46.7979 10.5456 45.54 10.5456Z" fill="#646F35"/>
<path d="M27.0664 102.434C22.8595 102.434 19.4354 99.072 19.4337 94.9397C19.4337 90.8074 22.8561 87.444 27.0631 87.4424C31.27 87.4424 34.694 90.8041 34.6957 94.9364C34.6957 99.0687 31.2733 102.432 27.0664 102.434ZM27.0647 88.2113C23.2894 88.2113 20.2166 91.2296 20.2183 94.9397C20.2183 98.648 23.2911 101.666 27.0681 101.665C30.8434 101.665 33.9162 98.6464 33.9145 94.9364C33.9145 91.228 30.8417 88.2097 27.0647 88.2113Z" fill="#45B8DB"/>
<path d="M27.0647 100.897C23.7209 100.897 20.9994 98.2258 20.9977 94.9413C20.9977 91.6568 23.7176 88.9836 27.0614 88.9819C30.4052 88.9819 33.1267 91.6535 33.1284 94.938C33.1284 98.2225 30.4085 100.896 27.0647 100.897ZM27.0631 89.7509C24.1508 89.7509 21.7806 92.0791 21.7806 94.9413C21.7806 97.8019 24.1508 100.13 27.0647 100.13C29.9769 100.13 32.3472 97.8019 32.3472 94.9397C32.3472 92.0791 29.9769 89.7509 27.0631 89.7509Z" fill="#45B8DB"/>
<path d="M25.8269 99.4893C25.0156 99.2757 24.2729 98.8551 23.6791 98.2735L24.37 97.5932C24.8433 98.0566 25.4355 98.3918 26.0812 98.561L25.8286 99.4893H25.8269ZM28.3076 99.4877L28.0533 98.5594C28.7007 98.3885 29.2928 98.0533 29.7628 97.59L30.4553 98.2685C29.8632 98.8518 29.1205 99.2725 28.3076 99.4877ZM24.3616 92.2944L23.6674 91.6158C24.2579 91.0325 25.0006 90.6102 25.8135 90.3934L26.0695 91.32C25.4221 91.4926 24.8316 91.8277 24.3616 92.2927V92.2944ZM29.7562 92.2829C29.2811 91.8195 28.6889 91.486 28.0433 91.3168L28.2942 90.3884C29.1055 90.6004 29.8498 91.0194 30.4453 91.601L29.7562 92.2829Z" fill="#45B8DB"/>
<path d="M30.6912 94.6177H23.5002C23.3329 94.6177 23.1974 94.7524 23.1974 94.9151C23.1974 95.0794 23.3329 95.2125 23.5002 95.2125H30.6912C30.8585 95.2125 30.994 95.0777 30.994 94.9151C30.994 94.7508 30.8585 94.6177 30.6912 94.6177Z" fill="#45B8DB"/>
<path d="M28.9231 93.2703H25.2632C25.0959 93.2703 24.9604 93.4034 24.9604 93.5677C24.9604 93.732 25.0959 93.8651 25.2632 93.8651H28.9231C29.0904 93.8651 29.2259 93.732 29.2259 93.5677C29.2259 93.4034 29.0904 93.2703 28.9231 93.2703Z" fill="#45B8DB"/>
<path d="M28.9281 95.9617H25.2682C25.1009 95.9617 24.9655 96.0948 24.9655 96.2591C24.9655 96.4234 25.1009 96.5565 25.2682 96.5565H28.9281C29.0954 96.5565 29.2309 96.4234 29.2309 96.2591C29.2309 96.0948 29.0954 95.9617 28.9281 95.9617Z" fill="#45B8DB"/>
<path d="M74.3962 37.7859H16.4362C16.1368 37.7859 15.8926 38.0258 15.8926 38.3199C15.8926 38.614 16.1368 38.8539 16.4362 38.8539H74.3962C74.6956 38.8539 74.9399 38.614 74.9399 38.3199C74.9399 38.0258 74.6956 37.7859 74.3962 37.7859Z" fill="#344E5B"/>
<path d="M38.6751 42.5359H16.3308C16.1442 42.5359 15.993 42.6845 15.993 42.8678C15.993 43.0511 16.1442 43.1997 16.3308 43.1997H38.6751C38.8617 43.1997 39.013 43.0511 39.013 42.8678C39.013 42.6845 38.8617 42.5359 38.6751 42.5359Z" fill="#DDDDDD"/>
<path d="M38.6751 49.1082H16.3308C16.1442 49.1082 15.993 49.2568 15.993 49.4401C15.993 49.6234 16.1442 49.772 16.3308 49.772H38.6751C38.8617 49.772 39.013 49.6234 39.013 49.4401C39.013 49.2568 38.8617 49.1082 38.6751 49.1082Z" fill="#DDDDDD"/>
<path d="M34.0902 45.822H16.3308C16.1442 45.822 15.993 45.9706 15.993 46.1539C15.993 46.3372 16.1442 46.4858 16.3308 46.4858H34.0902C34.2768 46.4858 34.4281 46.3372 34.4281 46.1539C34.4281 45.9706 34.2768 45.822 34.0902 45.822Z" fill="#EF6565"/>
<path d="M34.0902 52.3943H16.3308C16.1442 52.3943 15.993 52.5429 15.993 52.7262C15.993 52.9095 16.1442 53.0581 16.3308 53.0581H34.0902C34.2768 53.0581 34.4281 52.9095 34.4281 52.7262C34.4281 52.5429 34.2768 52.3943 34.0902 52.3943Z" fill="#EF6565"/>
<path d="M38.6751 55.6804H16.3308C16.1442 55.6804 15.993 55.829 15.993 56.0123C15.993 56.1956 16.1442 56.3442 16.3308 56.3442H38.6751C38.8617 56.3442 39.013 56.1956 39.013 56.0123C39.013 55.829 38.8617 55.6804 38.6751 55.6804Z" fill="#DDDDDD"/>
<path d="M34.0902 58.9666H16.3308C16.1442 58.9666 15.993 59.1152 15.993 59.2985C15.993 59.4818 16.1442 59.6304 16.3308 59.6304H34.0902C34.2768 59.6304 34.4281 59.4818 34.4281 59.2985C34.4281 59.1152 34.2768 58.9666 34.0902 58.9666Z" fill="#EF6565"/>
<path d="M26.2836 72.1111H16.3308C16.1442 72.1111 15.993 72.2597 15.993 72.443C15.993 72.6263 16.1442 72.7749 16.3308 72.7749H26.2836C26.4702 72.7749 26.6215 72.6263 26.6215 72.443C26.6215 72.2597 26.4702 72.1111 26.2836 72.1111Z" fill="#DDDDDD"/>
<path d="M38.272 73.7542H16.3308C16.1442 73.7542 15.993 73.9027 15.993 74.086C15.993 74.2693 16.1442 74.4179 16.3308 74.4179H38.272C38.4586 74.4179 38.6099 74.2693 38.6099 74.086C38.6099 73.9027 38.4586 73.7542 38.272 73.7542Z" fill="#DDDDDD"/>
<path d="M74.5417 74.4179H68.918C68.7307 74.4179 68.5801 74.2701 68.5801 74.086C68.5801 73.902 68.7307 73.7542 68.918 73.7542H74.5417C74.7291 73.7542 74.8796 73.902 74.8796 74.086C74.8796 74.2701 74.7291 74.4179 74.5417 74.4179Z" fill="#BCBCBC"/>
<path d="M30.4938 77.7041H16.3308C16.1435 77.7041 15.993 77.5562 15.993 77.3722C15.993 77.1882 16.1435 77.0403 16.3308 77.0403H30.4938C30.6812 77.0403 30.8317 77.1882 30.8317 77.3722C30.8317 77.5562 30.6812 77.7041 30.4938 77.7041Z" fill="#DDDDDD"/>
<path d="M26.3956 79.3471H16.3308C16.1435 79.3471 15.993 79.1993 15.993 79.0152C15.993 78.8312 16.1435 78.6833 16.3308 78.6833H26.3956C26.583 78.6833 26.7335 78.8312 26.7335 79.0152C26.7335 79.1993 26.583 79.3471 26.3956 79.3471Z" fill="#DDDDDD"/>
<path d="M74.5417 79.3471H68.918C68.7307 79.3471 68.5801 79.1993 68.5801 79.0152C68.5801 78.8312 68.7307 78.6833 68.918 78.6833H74.5417C74.7291 78.6833 74.8796 78.8312 74.8796 79.0152C74.8796 79.1993 74.7291 79.3471 74.5417 79.3471Z" fill="#BCBCBC"/>
<path d="M74.602 82.0171H16.3626C16.1937 82.0171 16.0565 82.1518 16.0565 82.3178C16.0565 82.4837 16.1937 82.6184 16.3626 82.6184H74.602C74.7709 82.6184 74.9081 82.4837 74.9081 82.3178C74.9081 82.1518 74.7709 82.0171 74.602 82.0171Z" fill="#BCBCBC"/>
<path d="M74.602 62.3003H16.3626C16.1937 62.3003 16.0565 62.435 16.0565 62.601C16.0565 62.7669 16.1937 62.9016 16.3626 62.9016H74.602C74.7709 62.9016 74.9081 62.7669 74.9081 62.601C74.9081 62.435 74.7709 62.3003 74.602 62.3003Z" fill="#DDDDDD"/>
<path d="M74.602 65.5864H16.3626C16.1937 65.5864 16.0565 65.7212 16.0565 65.8871C16.0565 66.0531 16.1937 66.1878 16.3626 66.1878H74.602C74.7709 66.1878 74.9081 66.0531 74.9081 65.8871C74.9081 65.7212 74.7709 65.5864 74.602 65.5864Z" fill="#DDDDDD"/>
<path d="M74.602 68.8726H16.3626C16.1937 68.8726 16.0565 69.0073 16.0565 69.1732C16.0565 69.3392 16.1937 69.4739 16.3626 69.4739H74.602C74.7709 69.4739 74.9081 69.3392 74.9081 69.1732C74.9081 69.0073 74.7709 68.8726 74.602 68.8726Z" fill="#DDDDDD"/>
<path d="M71.939 101.734H61.1783C61.0094 101.734 60.8722 101.869 60.8722 102.035C60.8722 102.201 61.0094 102.335 61.1783 102.335H71.939C72.1079 102.335 72.2451 102.201 72.2451 102.035C72.2451 101.869 72.1079 101.734 71.939 101.734Z" fill="#BCBCBC"/>
<path d="M76.258 93.2146C76.2228 93.1653 76.166 93.139 76.1007 93.1439C74.0951 93.2934 72.2501 93.5399 70.4569 93.8997C70.4134 93.9079 70.3198 93.9194 70.2094 93.9326C69.5503 94.0082 69.1756 94.0772 69.0886 94.2201L69.1689 94.2661V94.2809C69.0033 94.2398 68.816 94.2497 68.6102 94.3105C68.4965 94.3433 68.4614 94.4485 68.4848 94.5339C68.5115 94.6325 68.6086 94.6884 68.7089 94.6654C68.8779 94.6243 69.0468 94.5849 69.2174 94.5471C69.3663 95.0203 69.6072 96.0702 69.6891 96.5647C69.6641 96.5549 69.6373 96.55 69.6089 96.5516C68.7223 96.5993 67.8977 96.6239 67.1098 96.6239C67.1265 96.5746 67.1433 96.527 67.1566 96.4793C67.2704 96.0965 67.2871 95.7695 67.2102 95.5198C67.2202 95.4573 67.2286 95.3949 67.2319 95.3292C67.262 94.7853 67.0195 94.3417 66.526 94.0459C65.9473 93.6993 65.0875 93.6122 64.3899 93.7929C64.4234 93.714 64.4552 93.6368 64.4836 93.5612C64.507 93.5021 64.4987 93.4413 64.4602 93.3953C64.4184 93.3444 64.3448 93.3197 64.2762 93.3312C64.2076 93.3427 64.1524 93.3854 64.129 93.4495L63.9299 93.9638C63.9032 93.9786 63.8748 93.9917 63.8497 94.0081C63.0233 94.4846 62.3325 95.155 62.003 95.8007C61.9494 95.9059 61.9026 96.0094 61.8574 96.1146C60.4339 95.2158 59.248 94.879 58.2393 95.086C57.3561 95.2667 56.8861 95.8287 57.0166 96.5516C57.224 97.71 59.0958 98.3573 60.0559 98.3212C61.18 98.2801 61.6768 97.664 62.0766 96.7504C62.0816 96.7373 62.0883 96.7241 62.0933 96.711C62.2773 96.8441 62.4563 96.9837 62.6336 97.125C62.57 97.3238 62.5366 97.5144 62.5633 97.6738C62.6286 98.0731 62.7557 98.1092 63.0133 98.1503C63.0585 98.1569 63.1086 98.1651 63.1655 98.1766C63.3713 98.2177 63.6121 98.198 63.8647 98.1388C64.3297 98.4773 64.8667 98.7369 65.4789 98.5972C66.0309 98.4707 66.6766 97.6557 67.0178 96.872C68.0265 96.8539 69.0786 96.8983 69.2124 97.2121C69.2793 97.3715 69.1054 97.6327 68.9197 97.9088C68.6404 98.3261 68.2941 98.8453 68.7106 99.2397C68.8428 99.3645 68.9749 99.427 69.1087 99.427C69.1355 99.427 69.1606 99.4253 69.1873 99.4204C69.4065 99.3793 69.6072 99.1674 69.7811 98.7911C70.0789 98.1503 70.4369 95.4836 69.6222 94.5635C69.5955 94.5323 69.567 94.5044 69.5386 94.4797C71.7048 94.0032 73.9145 93.6795 76.1191 93.5152C76.1894 93.5103 76.2462 93.4725 76.2763 93.4117C76.3065 93.3493 76.3014 93.2737 76.2646 93.2195L76.258 93.2146ZM65.6094 98.0484C65.315 98.2357 65.0239 98.2867 64.7446 98.1996C64.5907 98.1519 64.4418 98.0862 64.2963 98.0041C64.9152 97.779 65.5257 97.4159 65.7967 97.2532C65.9673 97.1513 66.148 97.0297 66.3219 96.8884C66.3889 96.8852 66.4591 96.8835 66.5294 96.8819C66.3537 97.314 66.0209 97.7872 65.6094 98.0484ZM63.2224 97.7116C63.1789 97.6755 63.1555 97.6196 63.1438 97.5473C63.1755 97.5736 63.2057 97.5999 63.2374 97.6262L63.291 97.6722C63.3278 97.7034 63.3646 97.7363 63.403 97.7675C63.3227 97.7625 63.2625 97.7428 63.2224 97.71V97.7116ZM66.0543 96.6091C66.0309 96.6091 66.0075 96.6091 65.9841 96.6091C65.4254 96.5993 64.2645 96.5812 64.1909 96.3117C64.1742 96.2526 64.2059 96.0768 64.8349 95.7104C65.2129 95.5165 65.6244 95.4146 66.0577 95.4064C66.419 95.4984 66.6565 95.6233 66.7619 95.7761C66.6147 96.0965 66.327 96.3857 66.0543 96.6108V96.6091ZM65.8536 94.225C66.3805 94.4781 66.7017 94.7672 66.8154 95.086C66.235 94.8675 65.0105 95.0712 64.2628 95.4655C63.7443 95.7383 63.5017 96.0751 63.577 96.4152C63.674 96.8523 64.4853 96.9032 64.8316 96.9246L64.8817 96.9279C65.044 96.9394 65.3099 96.9312 65.6294 96.9197C65.5425 96.9772 65.4722 97.0182 65.4321 97.0429C64.9737 97.3091 64.4552 97.5374 64.0102 97.6672C63.9534 97.6837 63.8982 97.6985 63.8463 97.7116C63.6105 97.5325 63.383 97.3304 63.1571 97.1283C63.1638 97.0757 63.1705 97.0199 63.1789 96.9624L63.1839 96.9229C63.2742 96.2148 63.6556 95.3998 64.0219 94.6095C64.0838 94.4781 64.1441 94.3483 64.2009 94.2218C64.6409 94.0377 65.4605 94.0377 65.8536 94.2267V94.225ZM63.1956 95.8615C63.1488 95.9848 63.0702 96.1408 62.9882 96.3084C62.9146 96.4563 62.836 96.6173 62.7641 96.7784C62.5934 96.6321 62.4211 96.4908 62.2455 96.3725C62.5851 95.666 63.0317 94.9562 63.7275 94.4846L63.1956 95.8632V95.8615ZM60.5042 97.8283C59.8184 98.0484 58.9435 97.8907 58.3246 97.4339C57.8111 97.056 57.5535 96.476 57.6957 96.0225C57.8145 95.6463 58.1908 95.4261 58.7529 95.4031C58.7947 95.4015 58.8382 95.3998 58.88 95.3998C59.8569 95.3998 60.8203 95.8435 61.7203 96.4481C61.4827 97.056 61.2686 97.5802 60.5025 97.825L60.5042 97.8283ZM69.0686 98.2538C69.1087 98.1257 69.3228 97.6919 69.7075 96.9591C69.7109 96.9509 69.7159 96.9443 69.7193 96.9377C69.7109 98.078 69.4867 98.3064 69.3881 98.3508C69.3061 98.3885 69.199 98.3557 69.0686 98.2538Z" fill="#4B5E75"/>
<path d="M36.0021 22.1636H37.6497C38.6199 22.1636 39.4161 22.4955 39.4161 23.5635C39.4161 24.6314 38.6199 25.0406 37.6497 25.0406H37.0358V26.659H36.0004V22.1636H36.0021ZM37.5661 24.2338C38.1097 24.2338 38.4025 24.0054 38.4025 23.5635C38.4025 23.1215 38.1097 22.9703 37.5661 22.9703H37.0375V24.2338H37.5661ZM37.4607 24.7728L38.1766 24.1221L39.6369 26.6573H38.4794L37.4607 24.7711V24.7728Z" fill="#344E5B"/>
<path d="M39.9498 24.9488C39.9498 23.8381 40.756 23.1545 41.5924 23.1545C42.5843 23.1545 43.0761 23.8627 43.0761 24.7976C43.0761 24.98 43.0527 25.1624 43.0326 25.2462H40.9484C41.0404 25.7424 41.3866 25.9707 41.8516 25.9707C42.1159 25.9707 42.3518 25.8919 42.6044 25.7473L42.9456 26.3585C42.5893 26.6017 42.1226 26.7446 41.7095 26.7446C40.7159 26.7446 39.9464 26.0841 39.9464 24.952L39.9498 24.9488ZM42.1946 24.5741C42.1946 24.1979 42.0273 23.9268 41.6158 23.9268C41.2896 23.9268 41.0086 24.142 40.9383 24.5741H42.1946Z" fill="#344E5B"/>
<path d="M43.7853 23.2367H44.6267L44.7003 23.6705H44.7254C45.0181 23.3944 45.3694 23.1545 45.8444 23.1545C46.6022 23.1545 46.925 23.6803 46.925 24.5347V26.6592H45.8929V24.6645C45.8929 24.1716 45.7591 24.0188 45.4597 24.0188C45.2004 24.0188 45.0415 24.1371 44.814 24.3507V26.6592H43.782V23.2367H43.7853Z" fill="#344E5B"/>
<path d="M47.9437 25.4135V24.0317H47.4687V23.2759L48.0022 23.2365L48.1227 22.3279H48.9758V23.2365H49.8105V24.0317H48.9758V25.402C48.9758 25.7898 49.1548 25.9459 49.4274 25.9459C49.5428 25.9459 49.6666 25.913 49.7586 25.8802L49.9209 26.6163C49.7352 26.6738 49.4843 26.7411 49.1464 26.7411C48.2849 26.7411 47.9437 26.2071 47.9437 25.4135Z" fill="#344E5B"/>
<path d="M50.1902 25.7095C50.1902 24.9882 50.774 24.5988 52.1523 24.4558C52.1322 24.1568 51.98 23.9613 51.602 23.9613C51.3092 23.9613 51.0182 24.0829 50.6803 24.2702L50.314 23.6047C50.7556 23.3386 51.254 23.1545 51.8027 23.1545C52.6926 23.1545 53.186 23.654 53.186 24.7023V26.6592H52.3447L52.2694 26.3092H52.2443C51.9516 26.5622 51.622 26.743 51.2306 26.743C50.595 26.743 50.1919 26.2879 50.1919 25.7111L50.1902 25.7095ZM52.1523 25.6651V25.0671C51.418 25.164 51.1788 25.371 51.1788 25.629C51.1788 25.8492 51.3327 25.9576 51.5785 25.9576C51.8244 25.9576 51.97 25.8442 52.1523 25.6651Z" fill="#344E5B"/>
<path d="M54.0542 25.5944V21.8252H55.0863V25.6355C55.0863 25.8523 55.1883 25.9213 55.2736 25.9213C55.3138 25.9213 55.3405 25.9213 55.4007 25.9082L55.5245 26.6558C55.4108 26.7034 55.2418 26.7396 55.006 26.7396C54.2984 26.7396 54.0559 26.2861 54.0559 25.5927L54.0542 25.5944Z" fill="#344E5B"/>
<path d="M29.8615 30.4414H31.0993L32.5362 34.9368H31.4406L30.8417 32.6595C30.7146 32.2093 30.5925 31.6786 30.4704 31.2087H30.442C30.3316 31.6836 30.2095 32.2093 30.0823 32.6595L29.4818 34.9368H28.4247L29.8615 30.4414ZM29.3714 33.0769H31.5727V33.8672H29.3714V33.0769Z" fill="#344E5B"/>
<path d="M32.7319 35.5233C32.7319 35.239 32.9059 35.009 33.2254 34.8348V34.8069C33.0447 34.687 32.9076 34.5079 32.9076 34.2253C32.9076 33.9788 33.0748 33.7373 33.2956 33.5845V33.5565C33.0498 33.3889 32.8273 33.0686 32.8273 32.6693C32.8273 31.8478 33.5181 31.4304 34.2675 31.4304C34.4615 31.4304 34.6506 31.46 34.8078 31.5126H36.0824V32.2519H35.522C35.5873 32.3538 35.6408 32.5231 35.6408 32.7021C35.6408 33.4892 35.0303 33.8523 34.2692 33.8523C34.142 33.8523 33.9982 33.8309 33.8443 33.7866C33.759 33.8589 33.7222 33.9197 33.7222 34.0412C33.7222 34.2105 33.8627 34.2926 34.2441 34.2926H34.8095C35.6642 34.2926 36.1393 34.5506 36.1393 35.1618C36.1393 35.8733 35.3849 36.3908 34.1889 36.3908C33.3776 36.3908 32.7319 36.1329 32.7319 35.5233ZM35.1507 35.3343C35.1507 35.1191 34.9617 35.0698 34.6188 35.0698H34.2575C34.0183 35.0698 33.8828 35.0567 33.769 35.0254C33.6402 35.1322 33.58 35.2374 33.58 35.3606C33.58 35.6202 33.8861 35.7533 34.3528 35.7533C34.8195 35.7533 35.149 35.5709 35.149 35.3343H35.1507ZM34.7459 32.6693C34.7459 32.3045 34.5452 32.1123 34.2708 32.1123C33.9965 32.1123 33.7958 32.3029 33.7958 32.6693C33.7958 33.0357 33.9999 33.2394 34.2708 33.2394C34.5418 33.2394 34.7459 33.0439 34.7459 32.6693Z" fill="#344E5B"/>
<path d="M36.6996 31.5143H37.541L37.6146 32.1124H37.6397C37.894 31.6556 38.2737 31.4321 38.63 31.4321C38.829 31.4321 38.9444 31.4568 39.0448 31.5011L38.8725 32.3769C38.7487 32.3473 38.6467 32.321 38.4961 32.321C38.2335 32.321 37.914 32.487 37.7284 32.9536V34.9368H36.6963V31.5143H36.6996Z" fill="#344E5B"/>
<path d="M39.2238 33.2263C39.2238 32.1156 40.03 31.4321 40.8664 31.4321C41.8583 31.4321 42.3501 32.1403 42.3501 33.0752C42.3501 33.2576 42.3267 33.4399 42.3066 33.5237H40.2224C40.3144 34.0199 40.6606 34.2483 41.1257 34.2483C41.3883 34.2483 41.6258 34.1695 41.8784 34.0249L42.2196 34.6361C41.8633 34.8793 41.3967 35.0222 40.9835 35.0222C39.9899 35.0222 39.2204 34.3617 39.2204 33.2296L39.2238 33.2263ZM41.4686 32.8517C41.4686 32.4755 41.3013 32.2044 40.8898 32.2044C40.5636 32.2044 40.2826 32.4196 40.2124 32.8517H41.4686Z" fill="#344E5B"/>
<path d="M42.8586 33.2263C42.8586 32.1156 43.6649 31.4321 44.5012 31.4321C45.4932 31.4321 45.985 32.1403 45.985 33.0752C45.985 33.2576 45.9615 33.4399 45.9415 33.5237H43.8572C43.9492 34.0199 44.2955 34.2483 44.7605 34.2483C45.0248 34.2483 45.2607 34.1695 45.5133 34.0249L45.8545 34.6361C45.4982 34.8793 45.0315 35.0222 44.6183 35.0222C43.6247 35.0222 42.8553 34.3617 42.8553 33.2296L42.8586 33.2263ZM45.1034 32.8517C45.1034 32.4755 44.9362 32.2044 44.5247 32.2044C44.1985 32.2044 43.9175 32.4196 43.8472 32.8517H45.1034Z" fill="#344E5B"/>
<path d="M46.6942 31.5142H47.5356L47.6108 31.9529H47.6359C47.922 31.6703 48.2348 31.4304 48.6914 31.4304C49.1815 31.4304 49.4776 31.6374 49.6532 32.0071C49.9593 31.6933 50.2872 31.4304 50.7472 31.4304C51.4999 31.4304 51.8361 31.9562 51.8361 32.8106V34.9351H50.8041V32.9404C50.8041 32.4475 50.6669 32.2947 50.3742 32.2947C50.1985 32.2947 50.0012 32.4015 49.782 32.6266V34.9351H48.75V32.9404C48.75 32.4475 48.6128 32.2947 48.3201 32.2947C48.1478 32.2947 47.9471 32.4015 47.7279 32.6266V34.9351H46.6958V31.5126L46.6942 31.5142Z" fill="#344E5B"/>
<path d="M52.5119 33.2263C52.5119 32.1156 53.3182 31.4321 54.1545 31.4321C55.1465 31.4321 55.6383 32.1403 55.6383 33.0752C55.6383 33.2576 55.6148 33.4399 55.5948 33.5237H53.5105C53.6025 34.0199 53.9488 34.2483 54.4138 34.2483C54.6781 34.2483 54.914 34.1695 55.1665 34.0249L55.5078 34.6361C55.1515 34.8793 54.6848 35.0222 54.2716 35.0222C53.278 35.0222 52.5086 34.3617 52.5086 33.2296L52.5119 33.2263ZM54.7567 32.8517C54.7567 32.4755 54.5895 32.2044 54.178 32.2044C53.8518 32.2044 53.5708 32.4196 53.5005 32.8517H54.7567Z" fill="#344E5B"/>
<path d="M56.3475 31.5143H57.1889L57.2642 31.948H57.2892C57.582 31.672 57.9332 31.4321 58.4083 31.4321C59.166 31.4321 59.4889 31.9579 59.4889 32.8123V34.9368H58.4568V32.9421C58.4568 32.4492 58.323 32.2964 58.0236 32.2964C57.7643 32.2964 57.6054 32.4147 57.3779 32.6283V34.9368H56.3458V31.5143H56.3475Z" fill="#344E5B"/>
<path d="M60.5059 33.6914V32.3096H60.0309V31.5538L60.5645 31.5143L60.6849 30.6057H61.538V31.5143H62.3727V32.3096H61.538V33.6799C61.538 34.0676 61.717 34.2237 61.9896 34.2237C62.105 34.2237 62.2288 34.1909 62.3208 34.158L62.4831 34.8941C62.2974 34.9516 62.0465 35.019 61.7086 35.019C60.8471 35.019 60.5059 34.485 60.5059 33.6914Z" fill="#344E5B"/>
<path d="M66.2183 46.2263H48.1528V59.4529H66.2183V46.2263Z" fill="#344E5B"/>
<path d="M59.4052 49.813H54.9675V58.4259H59.4052V49.813Z" fill="#F8FAFD"/>
<path d="M64.6275 51.7634H61.1198V55.4324H64.6275V51.7634Z" fill="#F8FAFD"/>
<path d="M53.2529 51.7634H49.7452V55.4324H53.2529V51.7634Z" fill="#F8FAFD"/>
<path d="M68.2021 58.426H46.1706V60.4798H68.2021V58.426Z" fill="#2E464F"/>
<path d="M69.0636 47.0132L57.2424 40.5807C57.2056 40.5659 57.1655 40.5659 57.1287 40.5807L45.3075 47.0132C45.1569 47.074 45.2021 47.2942 45.3644 47.2942H69.0067C69.1689 47.2942 69.2141 47.074 69.0636 47.0132Z" fill="#344E5B"/>
</g>
</g>
<defs>
<clipPath id="clip0_1153_7678">
<rect width="92" height="116" fill="white" transform="translate(0 2)"/>
</clipPath>
</defs>
</svg>
